Coordinates
version=1
nRows=13
nColumns=30
inDegrees=yes

Units are S.I. units (second, meters, Newtons, ...)
Angles are in degrees.

endheader
time	floatyaw	floatroll	floatpitch	floatx	floaty	floatz	pro_sup_l	deviation_l	flexion_l	cmc_flexion_l	cmc_abduction_l	mp_flexion_l	ip_flexion_l	2mcp_flexion_l	2mcp_abduction_l	2pm_flexion_l	2md_flexion_l	3mcp_flexion_l	3mcp_abduction_l	3pm_flexion_l	3md_flexion_l	4mcp_flexion_l	4mcp_abduction_l	4pm_flexion_l	4md_flexion_l	5mcp_flexion_l	5mcp_abduction_l	5pm_flexion_l	5md_flexion_l
0.005000	-0.845308	-4.283240	94.249796	0.163451	-0.270407	0.160733	106.348151	21.993268	22.120594	-6.821006	36.027582	-16.909125	-19.442790	60.008961	13.483366	28.738262	34.029452	52.661884	7.913401	36.043496	48.411037	35.086236	-6.223537	71.004674	63.654419	27.177360	-10.250012	78.919846	56.099274
0.015000	-0.845308	-4.283240	94.249796	0.162898	-0.269733	0.160018	105.723413	21.608154	21.542499	-5.977080	35.888177	-17.468444	-22.145270	60.238126	13.436234	29.069449	35.439619	52.548490	7.820790	36.695670	50.268066	34.880336	-6.322095	71.435451	64.455066	27.097236	-10.032031	78.926734	56.146654
0.025000	-0.845308	-4.283240	94.249796	0.162248	-0.268991	0.159274	105.111480	21.221926	20.865832	-5.078213	35.895610	-17.937824	-25.136069	60.452337	13.387766	29.406115	37.019242	52.421695	7.732645	37.380770	52.302504	34.690661	-6.427783	71.857991	65.262102	26.985571	-9.809056	78.901326	56.310901
0.035000	-0.845308	-4.283240	94.249796	0.161538	-0.268252	0.158495	104.532965	20.849559	20.143007	-4.213826	36.003848	-18.317368	-28.186835	60.649786	13.350972	29.732001	38.681925	52.289859	7.657375	38.090464	54.342148	34.542866	-6.532337	72.251659	66.033860	26.864753	-9.603075	78.860167	56.555770
0.045000	-0.845308	-4.283240	94.249796	0.160801	-0.267590	0.157670	104.000973	20.503539	19.445485	-3.460166	36.175182	-18.594448	-31.045940	60.812264	13.334065	30.029580	40.307449	52.150309	7.600219	38.799267	56.187652	34.436439	-6.626356	72.591785	66.733729	26.759054	-9.436391	78.822870	56.816242
0.055000	-0.845308	-4.283240	94.249796	0.160069	-0.267064	0.156799	103.524092	20.195827	18.840748	-2.868326	36.384736	-18.749505	-33.495029	60.918604	13.338282	30.277678	41.768398	52.002816	7.562410	39.454412	57.676176	34.355799	-6.702014	72.853913	67.335430	26.685272	-9.322468	78.807045	57.023472
0.065000	-0.845308	-4.283240	94.249796	0.159363	-0.266698	0.155907	103.111165	19.939056	18.370071	-2.458633	36.615670	-18.770921	-35.391444	60.959328	13.358009	30.454644	42.955394	51.858942	7.541408	39.984519	58.725019	34.284214	-6.755011	73.020947	67.823408	26.647132	-9.260847	78.822793	57.129056
0.075000	-0.845308	-4.283240	94.249796	0.158696	-0.266486	0.155055	102.774664	19.745699	18.036647	-2.220694	36.853339	-18.669396	-36.690021	60.945271	13.383578	30.546441	43.797907	51.741688	7.532130	40.326531	59.341064	34.214451	-6.785396	73.091683	68.190300	26.637139	-9.238490	78.870773	57.117770
0.085000	-0.845308	-4.283240	94.249796	0.158080	-0.266392	0.154321	102.529844	19.624857	17.809237	-2.118704	37.083878	-18.481324	-37.444547	60.905367	13.405671	30.554753	44.279774	51.675664	7.528818	40.457183	59.599534	34.152381	-6.797211	73.086268	68.434912	26.644218	-9.236277	78.945125	57.004968
0.095000	-0.845308	-4.283240	94.249796	0.157527	-0.266370	0.153777	102.388615	19.577828	17.639165	-2.102077	37.296700	-18.257633	-37.788191	60.875046	13.419153	30.499112	44.444095	51.674283	7.526911	40.409667	59.607040	34.113340	-6.797064	73.043274	68.563161	26.661603	-9.237002	79.038887	56.822983
0.105000	-0.845308	-4.283240	94.249796	0.157051	-0.266380	0.153460	102.350381	19.594864	17.482052	-2.119560	37.487206	-18.044892	-37.893607	60.882198	13.424307	30.410539	44.380269	51.732490	7.524171	40.263246	59.466579	34.113802	-6.791978	73.006972	68.591273	26.689460	-9.230986	79.147946	56.605670
0.115000	-0.845308	-4.283240	94.249796	0.156668	-0.266400	0.153351	102.395570	19.655418	17.313862	-2.132351	37.656527	-17.870606	-37.922131	60.937948	13.425036	30.319731	44.194229	51.829302	7.520589	40.109429	59.257614	34.162016	-6.787241	73.009932	68.547790	26.730391	-9.217136	79.270701	56.379595
0.125000	-0.845308	-4.283240	94.249796	0.156388	-0.266421	0.153388	102.487537	19.732566	17.134877	-2.121619	37.807556	-17.740408	-37.980145	61.035134	13.425479	30.246155	43.975589	51.937607	7.517325	40.012471	59.034818	34.251412	-6.785154	73.059772	68.471006	26.781087	-9.199824	79.403161	56.165071
